# Blender v3.0.1 OBJ File: ''
# www.blender.org
mtllib barrier.mtl
o Cube.000_Cube.005
v -0.850534 -0.235850 0.113901
v -1.100750 -0.235850 0.113901
v -1.100750 -0.248000 -0.000000
v -0.855477 -0.248000 -0.000000
v -0.822325 -0.124000 0.830000
v -1.100750 -0.124000 0.830000
v -1.100750 -0.124000 0.704493
v -0.822325 -0.124000 0.704493
v -1.100750 0.124000 0.830000
v -1.100750 0.124000 0.704493
v -0.822325 0.124000 0.830000
v -1.100750 0.235850 0.113901
v -1.100750 0.248000 0.000000
v -0.855477 0.248000 0.000000
v -0.135975 0.124000 0.830000
v -0.356125 0.124000 0.830000
v -0.356125 -0.124000 0.830000
v -0.135975 -0.124000 0.830000
v -0.602175 0.124000 0.830000
v -0.602175 -0.124000 0.830000
v -1.100750 0.215517 0.221266
v -1.100750 -0.215517 0.221266
v -0.578702 0.248000 0.000000
v -0.578702 -0.248000 -0.000000
v -0.376792 0.248000 0.000000
v -0.376792 -0.248000 -0.000000
v -0.113530 0.248000 0.000000
v -0.113530 -0.248000 -0.000000
v 0.113530 0.248000 0.000000
v 0.113530 -0.248000 -0.000000
v 0.113530 -0.235850 0.113901
v -0.113530 -0.235850 0.113901
v -0.356125 -0.124000 0.704493
v -0.135975 -0.124000 0.704493
v -0.602175 -0.124000 0.704493
v 0.113960 -0.215517 0.221266
v -0.113960 -0.215517 0.221266
v -0.376792 -0.235850 0.113901
v -0.578702 -0.235850 0.113901
v -0.580160 -0.215517 0.221266
v -0.844340 -0.215517 0.221266
v -0.378140 -0.215517 0.221266
v -0.135975 -0.144538 0.596049
v 0.135975 -0.144538 0.596049
v 0.135975 -0.124000 0.704493
v -1.100750 0.144538 0.596049
v -1.100750 -0.144538 0.596049
v -0.822325 -0.144538 0.596049
v -1.100750 0.197262 0.317655
v -1.100750 -0.197262 0.317655
v 0.124968 -0.197262 0.317655
v -0.124968 -0.197262 0.317655
v -0.356125 -0.144538 0.596049
v -0.602175 -0.144538 0.596049
v -0.833332 -0.197262 0.317655
v -0.113960 -0.205909 0.221266
v -0.378140 -0.205909 0.221266
v -0.367132 -0.197262 0.317655
v -0.591167 -0.197262 0.317655
v -0.580160 -0.205909 0.221266
v -0.844340 -0.205909 0.221266
v -0.137076 -0.146864 0.317655
v -0.355024 -0.146864 0.317655
v -0.603276 -0.146864 0.317655
v -0.821224 -0.146864 0.317655
v -0.602175 -0.117714 0.596049
v -0.135975 -0.117714 0.596049
v -0.822325 -0.117714 0.596049
v -0.356125 -0.117714 0.596049
v 0.135975 0.124000 0.830000
v 0.135975 0.124000 0.704493
v -0.135975 0.124000 0.704493
v -0.113530 0.235850 0.113901
v 0.113530 0.235850 0.113901
v 0.850534 -0.235850 0.113901
v 0.855477 -0.248000 -0.000000
v 1.100750 -0.248000 -0.000000
v 1.100750 -0.235850 0.113901
v 0.822325 -0.124000 0.830000
v 0.822325 -0.124000 0.704493
v 1.100750 -0.124000 0.704493
v 1.100750 -0.124000 0.830000
v 1.100750 0.124000 0.830000
v 1.100750 0.124000 0.704493
v 0.822325 0.124000 0.830000
v 1.100750 0.235850 0.113901
v 1.100750 0.248000 0.000000
v 0.855477 0.248000 0.000000
v 0.135975 -0.124000 0.830000
v 0.356125 -0.124000 0.830000
v 0.356125 0.124000 0.830000
v 0.602175 -0.124000 0.830000
v 0.602175 0.124000 0.830000
v 1.100750 0.215517 0.221266
v 1.100750 -0.215517 0.221266
v 0.578702 -0.248000 -0.000000
v 0.578702 0.248000 0.000000
v 0.376792 -0.248000 -0.000000
v 0.376792 0.248000 0.000000
v 0.356125 -0.124000 0.704493
v 0.602175 -0.124000 0.704493
v 0.376792 -0.235850 0.113901
v 0.578702 -0.235850 0.113901
v 0.580160 -0.215517 0.221266
v 0.844340 -0.215517 0.221266
v 0.378140 -0.215517 0.221266
v 1.100750 -0.144538 0.596049
v 1.100750 0.144538 0.596049
v 0.822325 -0.144538 0.596049
v 1.100750 0.197262 0.317655
v 1.100750 -0.197262 0.317655
v 0.356125 -0.144538 0.596049
v 0.602175 -0.144538 0.596049
v 0.833332 -0.197262 0.317655
v 0.378140 -0.205909 0.221266
v 0.113960 -0.205909 0.221266
v 0.367132 -0.197262 0.317655
v 0.591167 -0.197262 0.317655
v 0.844340 -0.205909 0.221266
v 0.580160 -0.205909 0.221266
v 0.137076 -0.146864 0.317655
v 0.355024 -0.146864 0.317655
v 0.603276 -0.146864 0.317655
v 0.821224 -0.146864 0.317655
v 0.602175 -0.117714 0.596049
v 0.135975 -0.117714 0.596049
v 0.822325 -0.117714 0.596049
v 0.356125 -0.117714 0.596049
v -0.850534 0.235850 0.113901
v -0.822325 0.124000 0.704493
v -0.356125 0.124000 0.704493
v -0.602175 0.124000 0.704493
v -0.113960 0.215517 0.221266
v 0.113960 0.215517 0.221266
v -0.376792 0.235850 0.113901
v -0.578702 0.235850 0.113901
v -0.580160 0.215517 0.221266
v -0.844340 0.215517 0.221266
v -0.378140 0.215517 0.221266
v 0.135975 0.144538 0.596049
v -0.135975 0.144538 0.596049
v -0.822325 0.144538 0.596049
v -0.124968 0.197262 0.317655
v 0.124968 0.197262 0.317655
v -0.356125 0.144538 0.596049
v -0.602175 0.144538 0.596049
v -0.833332 0.197262 0.317655
v -0.378140 0.205909 0.221266
v -0.113960 0.205909 0.221266
v -0.367132 0.197262 0.317655
v -0.591167 0.197262 0.317655
v -0.844340 0.205909 0.221266
v -0.580160 0.205909 0.221266
v -0.137076 0.146864 0.317655
v -0.355024 0.146864 0.317655
v -0.603276 0.146864 0.317655
v -0.821224 0.146864 0.317655
v -0.602175 0.117714 0.596049
v -0.135975 0.117714 0.596049
v -0.822325 0.117714 0.596049
v -0.356125 0.117714 0.596049
v 0.850534 0.235850 0.113901
v 0.822325 0.124000 0.704493
v 0.356125 0.124000 0.704493
v 0.602175 0.124000 0.704493
v 0.376792 0.235850 0.113901
v 0.578702 0.235850 0.113901
v 0.580160 0.215517 0.221266
v 0.844340 0.215517 0.221266
v 0.378140 0.215517 0.221266
v 0.822325 0.144538 0.596049
v 0.356125 0.144538 0.596049
v 0.602175 0.144538 0.596049
v 0.833332 0.197262 0.317655
v 0.113960 0.205909 0.221266
v 0.378140 0.205909 0.221266
v 0.367132 0.197262 0.317655
v 0.591167 0.197262 0.317655
v 0.580160 0.205909 0.221266
v 0.844340 0.205909 0.221266
v 0.137076 0.146864 0.317655
v 0.355024 0.146864 0.317655
v 0.603276 0.146864 0.317655
v 0.821224 0.146864 0.317655
v 0.602175 0.117714 0.596049
v 0.135975 0.117714 0.596049
v 0.822325 0.117714 0.596049
v 0.356125 0.117714 0.596049
vt 0.105600 0.076700
vt 0.028400 0.076700
vt 0.028400 0.026700
vt 0.105600 0.026700
vt 0.105600 0.419000
vt 0.028400 0.419000
vt 0.028400 0.356800
vt 0.105600 0.356800
vt 0.270300 0.955500
vt 0.229500 0.955500
vt 0.229500 0.902000
vt 0.270300 0.902000
vt 0.328400 0.955500
vt 0.328400 0.902000
vt 0.037200 0.979600
vt 0.005100 0.982300
vt 0.005100 0.875300
vt 0.037200 0.877900
vt 0.867400 0.686300
vt 0.867400 0.635600
vt 0.974400 0.635600
vt 0.974400 0.686300
vt 0.471600 0.955500
vt 0.425700 0.955500
vt 0.425700 0.902000
vt 0.471600 0.902000
vt 0.374400 0.955500
vt 0.374400 0.902000
vt 0.072200 0.975300
vt 0.072200 0.882300
vt 0.867400 0.578400
vt 0.974400 0.578400
vt 0.867400 0.536700
vt 0.974400 0.536700
vt 0.867400 0.482300
vt 0.974400 0.482300
vt 0.867400 0.435400
vt 0.974400 0.435400
vt 0.327100 0.026700
vt 0.401600 0.026700
vt 0.401600 0.076700
vt 0.327100 0.076700
vt 0.327100 0.419000
vt 0.249100 0.419000
vt 0.249100 0.356800
vt 0.327100 0.356800
vt 0.180300 0.419000
vt 0.180300 0.356800
vt 0.401600 0.127600
vt 0.327100 0.127600
vt 0.249100 0.076700
vt 0.249100 0.026700
vt 0.180300 0.076700
vt 0.180300 0.026700
vt 0.180300 0.127600
vt 0.105600 0.127600
vt 0.249100 0.127600
vt 0.327100 0.306100
vt 0.401600 0.306100
vt 0.401600 0.356800
vt 0.194200 0.960000
vt 0.194200 0.897600
vt 0.028400 0.127600
vt 0.028400 0.306100
vt 0.105600 0.306100
vt 0.103500 0.971300
vt 0.103500 0.886200
vt 0.401600 0.168700
vt 0.327100 0.168700
vt 0.249100 0.306100
vt 0.180300 0.306100
vt 0.105600 0.168700
vt 0.028400 0.168700
vt 0.319700 0.142400
vt 0.257500 0.142400
vt 0.249100 0.168700
vt 0.180300 0.168700
vt 0.169000 0.142400
vt 0.114500 0.142400
vt 0.319700 0.168700
vt 0.257500 0.168700
vt 0.169000 0.168700
vt 0.114500 0.168700
vt 0.169000 0.299700
vt 0.319700 0.299700
vt 0.114500 0.299700
vt 0.257500 0.299700
vt 0.561300 0.287300
vt 0.561300 0.246200
vt 0.561300 0.246200
vt 0.561300 0.277300
vt 0.398400 0.842400
vt 0.330700 0.842400
vt 0.330700 0.780200
vt 0.398400 0.780200
vt 0.398400 0.500100
vt 0.330700 0.500100
vt 0.330700 0.450100
vt 0.398400 0.450100
vt 0.623100 0.076700
vt 0.623100 0.026700
vt 0.699800 0.026700
vt 0.699800 0.076700
vt 0.623100 0.419000
vt 0.623100 0.356800
vt 0.699800 0.356800
vt 0.699800 0.419000
vt 0.729700 0.955500
vt 0.729700 0.902000
vt 0.770500 0.902000
vt 0.770500 0.955500
vt 0.671600 0.955500
vt 0.671600 0.902000
vt 0.962800 0.979600
vt 0.962800 0.877900
vt 0.994900 0.875300
vt 0.994900 0.982300
vt 0.867400 0.231500
vt 0.974400 0.231500
vt 0.974400 0.282200
vt 0.867400 0.282200
vt 0.528400 0.955500
vt 0.528400 0.902000
vt 0.574300 0.902000
vt 0.574300 0.955500
vt 0.625600 0.902000
vt 0.625600 0.955500
vt 0.927800 0.975300
vt 0.927800 0.882300
vt 0.974400 0.339300
vt 0.867400 0.339300
vt 0.974400 0.381100
vt 0.867400 0.381100
vt 0.401600 0.419000
vt 0.480600 0.356800
vt 0.480600 0.419000
vt 0.548800 0.356800
vt 0.548800 0.419000
vt 0.480600 0.026700
vt 0.480600 0.076700
vt 0.548800 0.026700
vt 0.548800 0.076700
vt 0.548800 0.127600
vt 0.623100 0.127600
vt 0.480600 0.127600
vt 0.805800 0.897600
vt 0.805800 0.960000
vt 0.699800 0.127600
vt 0.623100 0.306100
vt 0.699800 0.306100
vt 0.896500 0.971300
vt 0.896500 0.886200
vt 0.480600 0.306100
vt 0.548800 0.306100
vt 0.623100 0.168700
vt 0.699800 0.168700
vt 0.471800 0.142400
vt 0.409400 0.142400
vt 0.480600 0.168700
vt 0.548800 0.168700
vt 0.614800 0.142400
vt 0.561300 0.142400
vt 0.409400 0.168700
vt 0.471800 0.168700
vt 0.561300 0.168700
vt 0.614800 0.168700
vt 0.561300 0.299700
vt 0.409400 0.299700
vt 0.614800 0.299700
vt 0.471800 0.299700
vt 0.169000 0.266300
vt 0.169000 0.288200
vt 0.169000 0.225300
vt 0.169000 0.226100
vt 0.629300 0.500100
vt 0.629300 0.450100
vt 0.699800 0.450100
vt 0.699800 0.500100
vt 0.629300 0.842400
vt 0.629300 0.780200
vt 0.699800 0.780200
vt 0.699800 0.842400
vt 0.483600 0.780200
vt 0.483600 0.842400
vt 0.542700 0.780200
vt 0.542700 0.842400
vt 0.398400 0.551000
vt 0.330700 0.551000
vt 0.483600 0.450100
vt 0.483600 0.500100
vt 0.542700 0.450100
vt 0.542700 0.500100
vt 0.542700 0.551000
vt 0.629300 0.551000
vt 0.483600 0.551000
vt 0.330700 0.728700
vt 0.398400 0.728700
vt 0.699800 0.551000
vt 0.629300 0.728700
vt 0.699800 0.728700
vt 0.398400 0.592100
vt 0.330700 0.592100
vt 0.483600 0.728700
vt 0.542700 0.728700
vt 0.629300 0.592100
vt 0.699800 0.592100
vt 0.473100 0.562800
vt 0.406500 0.562800
vt 0.483600 0.592100
vt 0.542700 0.592100
vt 0.620100 0.562800
vt 0.552700 0.562800
vt 0.413800 0.592100
vt 0.469600 0.592100
vt 0.560100 0.592100
vt 0.614600 0.592100
vt 0.560100 0.717300
vt 0.413800 0.717300
vt 0.614600 0.717300
vt 0.469600 0.717300
vt 0.099400 0.500100
vt 0.028400 0.500100
vt 0.028400 0.450100
vt 0.099400 0.450100
vt 0.099400 0.842400
vt 0.028400 0.842400
vt 0.028400 0.780200
vt 0.099400 0.780200
vt 0.245800 0.842400
vt 0.245800 0.780200
vt 0.186400 0.842400
vt 0.186400 0.780200
vt 0.245800 0.500100
vt 0.245800 0.450100
vt 0.186400 0.500100
vt 0.186400 0.450100
vt 0.186400 0.551000
vt 0.099400 0.551000
vt 0.245800 0.551000
vt 0.028400 0.551000
vt 0.028400 0.728700
vt 0.099400 0.728700
vt 0.245800 0.728700
vt 0.186400 0.728700
vt 0.099400 0.592100
vt 0.028400 0.592100
vt 0.322900 0.562800
vt 0.254600 0.562800
vt 0.245800 0.592100
vt 0.186400 0.592100
vt 0.181600 0.562800
vt 0.108100 0.562800
vt 0.316200 0.592100
vt 0.259400 0.592100
vt 0.172700 0.592100
vt 0.113500 0.592100
vt 0.172700 0.717300
vt 0.316200 0.717300
vt 0.113500 0.717300
vt 0.259400 0.717300
vn 0.0000 -0.9944 0.1061
vn 0.0000 -1.0000 -0.0000
vn -1.0000 0.0000 0.0000
vn 0.0000 0.0000 1.0000
vn 0.0000 0.0000 -1.0000
vn 0.0000 -0.9825 0.1861
vn 0.0000 -0.8527 0.5224
vn 0.9759 -0.1969 -0.0938
vn -0.9879 -0.1549 0.0052
vn -0.9759 -0.1969 -0.0938
vn 0.9879 -0.1549 0.0052
vn 0.0000 -0.9946 0.1041
vn 0.0000 1.0000 0.0000
vn 0.0000 0.9944 0.1061
vn 1.0000 0.0000 0.0000
vn 0.0000 0.9825 0.1861
vn 0.0000 0.8527 0.5224
vn 0.9759 0.1969 -0.0938
vn -0.9879 0.1549 0.0052
vn -0.9759 0.1969 -0.0938
vn 0.9879 0.1549 0.0052
vn 0.0000 0.9946 0.1041
usemtl Material.005
s 1
f 1/1/1 2/2/1 3/3/1 4/4/1
f 5/5/2 6/6/2 7/7/2 8/8/2
f 9/9/3 10/10/3 7/11/3 6/12/3
f 11/13/4 9/9/4 6/12/4 5/14/4
f 12/15/3 13/16/3 3/17/3 2/18/3
f 13/19/5 14/20/5 4/21/5 3/22/5
f 15/23/4 16/24/4 17/25/4 18/26/4
f 16/24/4 19/27/4 20/28/4 17/25/4
f 19/27/4 11/13/4 5/14/4 20/28/4
f 21/29/3 12/15/3 2/18/3 22/30/3
f 14/20/5 23/31/5 24/32/5 4/21/5
f 23/31/5 25/33/5 26/34/5 24/32/5
f 25/33/5 27/35/5 28/36/5 26/34/5
f 27/35/5 29/37/5 30/38/5 28/36/5
f 28/39/1 30/40/1 31/41/1 32/42/1
f 18/43/2 17/44/2 33/45/2 34/46/2
f 17/44/2 20/47/2 35/48/2 33/45/2
f 20/47/2 5/5/2 8/8/2 35/48/2
f 32/42/6 31/41/6 36/49/6 37/50/6
f 32/42/1 38/51/1 26/52/1 28/39/1
f 38/51/1 39/53/1 24/54/1 26/52/1
f 39/53/1 1/1/1 4/4/1 24/54/1
f 40/55/6 41/56/6 1/1/6 39/53/6
f 42/57/6 40/55/6 39/53/6 38/51/6
f 37/50/6 42/57/6 38/51/6 32/42/6
f 43/58/6 44/59/6 45/60/6 34/46/6
f 10/10/3 46/61/3 47/62/3 7/11/3
f 41/56/6 22/63/6 2/2/6 1/1/6
f 8/8/6 7/7/6 47/64/6 48/65/6
f 49/66/3 21/29/3 22/30/3 50/67/3
f 37/50/6 36/49/6 51/68/6 52/69/6
f 34/46/6 33/45/6 53/70/6 43/58/6
f 33/45/6 35/48/6 54/71/6 53/70/6
f 35/48/6 8/8/6 48/65/6 54/71/6
f 55/72/6 50/73/6 22/63/6 41/56/6
f 46/61/3 49/66/3 50/67/3 47/62/3
f 52/69/6 51/68/6 44/59/6 43/58/6
f 42/57/4 37/50/4 56/74/4 57/75/4
f 58/76/6 59/77/6 40/55/6 42/57/6
f 41/56/4 40/55/4 60/78/4 61/79/4
f 62/80/7 63/81/7 57/75/7 56/74/7
f 64/82/7 65/83/7 61/79/7 60/78/7
f 55/72/8 41/56/8 61/79/8 65/83/8
f 59/77/9 54/71/9 66/84/9 64/82/9
f 58/76/8 42/57/8 57/75/8 63/81/8
f 52/69/9 43/58/9 67/85/9 62/80/9
f 54/71/5 48/65/5 68/86/5 66/84/5
f 43/58/5 53/70/5 69/87/5 67/85/5
f 37/50/10 52/69/10 62/80/10 56/74/10
f 53/70/11 58/76/11 63/81/11 69/87/11
f 40/88/10 59/89/10 64/90/10 60/91/10
f 48/65/11 55/72/11 65/83/11 68/86/11
f 66/84/12 68/86/12 65/83/12 64/82/12
f 67/85/12 69/87/12 63/81/12 62/80/12
f 53/70/6 54/71/6 59/77/6 58/76/6
f 15/92/13 70/93/13 71/94/13 72/95/13
f 73/96/14 74/97/14 29/98/14 27/99/14
f 48/65/6 47/64/6 50/73/6 55/72/6
f 75/100/1 76/101/1 77/102/1 78/103/1
f 79/104/2 80/105/2 81/106/2 82/107/2
f 83/108/15 82/109/15 81/110/15 84/111/15
f 85/112/4 79/113/4 82/109/4 83/108/4
f 86/114/15 78/115/15 77/116/15 87/117/15
f 87/118/5 77/119/5 76/120/5 88/121/5
f 70/122/4 89/123/4 90/124/4 91/125/4
f 91/125/4 90/124/4 92/126/4 93/127/4
f 93/127/4 92/126/4 79/113/4 85/112/4
f 94/128/15 95/129/15 78/115/15 86/114/15
f 88/121/5 76/120/5 96/130/5 97/131/5
f 97/131/5 96/130/5 98/132/5 99/133/5
f 99/133/5 98/132/5 30/38/5 29/37/5
f 89/134/2 45/60/2 100/135/2 90/136/2
f 90/136/2 100/135/2 101/137/2 92/138/2
f 92/138/2 101/137/2 80/105/2 79/104/2
f 31/41/1 30/40/1 98/139/1 102/140/1
f 102/140/1 98/139/1 96/141/1 103/142/1
f 103/142/1 96/141/1 76/101/1 75/100/1
f 104/143/6 103/142/6 75/100/6 105/144/6
f 106/145/6 102/140/6 103/142/6 104/143/6
f 36/49/6 31/41/6 102/140/6 106/145/6
f 84/111/15 81/110/15 107/146/15 108/147/15
f 105/144/6 75/100/6 78/103/6 95/148/6
f 80/105/6 109/149/6 107/150/6 81/106/6
f 110/151/15 111/152/15 95/129/15 94/128/15
f 45/60/6 44/59/6 112/153/6 100/135/6
f 100/135/6 112/153/6 113/154/6 101/137/6
f 101/137/6 113/154/6 109/149/6 80/105/6
f 114/155/6 105/144/6 95/148/6 111/156/6
f 108/147/15 107/146/15 111/152/15 110/151/15
f 106/145/4 115/157/4 116/158/4 36/49/4
f 117/159/6 106/145/6 104/143/6 118/160/6
f 105/144/4 119/161/4 120/162/4 104/143/4
f 121/163/7 116/158/7 115/157/7 122/164/7
f 123/165/7 120/162/7 119/161/7 124/166/7
f 114/155/10 124/166/10 119/161/10 105/144/10
f 118/160/11 123/165/11 125/167/11 113/154/11
f 117/159/10 122/164/10 115/157/10 106/145/10
f 51/68/11 121/163/11 126/168/11 44/59/11
f 113/154/5 125/167/5 127/169/5 109/149/5
f 44/59/5 126/168/5 128/170/5 112/153/5
f 36/49/8 116/158/8 121/163/8 51/68/8
f 112/153/9 128/170/9 122/164/9 117/159/9
f 104/171/8 120/172/8 123/173/8 118/174/8
f 109/149/9 127/169/9 124/166/9 114/155/9
f 125/167/12 123/165/12 124/166/12 127/169/12
f 126/168/12 121/163/12 122/164/12 128/170/12
f 112/153/6 117/159/6 118/160/6 113/154/6
f 109/149/6 114/155/6 111/156/6 107/150/6
f 129/175/14 14/176/14 13/177/14 12/178/14
f 11/179/13 130/180/13 10/181/13 9/182/13
f 18/26/4 89/123/4 70/122/4 15/23/4
f 15/92/13 72/95/13 131/183/13 16/184/13
f 16/184/13 131/183/13 132/185/13 19/186/13
f 19/186/13 132/185/13 130/180/13 11/179/13
f 133/187/16 134/188/16 74/97/16 73/96/16
f 73/96/14 27/99/14 25/189/14 135/190/14
f 135/190/14 25/189/14 23/191/14 136/192/14
f 136/192/14 23/191/14 14/176/14 129/175/14
f 137/193/16 136/192/16 129/175/16 138/194/16
f 139/195/16 135/190/16 136/192/16 137/193/16
f 133/187/16 73/96/16 135/190/16 139/195/16
f 72/95/16 71/94/16 140/196/16 141/197/16
f 138/194/16 129/175/16 12/178/16 21/198/16
f 130/180/16 142/199/16 46/200/16 10/181/16
f 143/201/16 144/202/16 134/188/16 133/187/16
f 72/95/16 141/197/16 145/203/16 131/183/16
f 131/183/16 145/203/16 146/204/16 132/185/16
f 132/185/16 146/204/16 142/199/16 130/180/16
f 147/205/16 138/194/16 21/198/16 49/206/16
f 141/197/16 140/196/16 144/202/16 143/201/16
f 139/195/4 148/207/4 149/208/4 133/187/4
f 150/209/16 139/195/16 137/193/16 151/210/16
f 138/194/4 152/211/4 153/212/4 137/193/4
f 154/213/17 149/208/17 148/207/17 155/214/17
f 156/215/17 153/212/17 152/211/17 157/216/17
f 147/205/18 157/216/18 152/211/18 138/194/18
f 151/210/19 156/215/19 158/217/19 146/204/19
f 150/209/18 155/214/18 148/207/18 139/195/18
f 143/201/19 154/213/19 159/218/19 141/197/19
f 146/204/5 158/217/5 160/219/5 142/199/5
f 141/197/5 159/218/5 161/220/5 145/203/5
f 133/187/20 149/208/20 154/213/20 143/201/20
f 145/203/21 161/220/21 155/214/21 150/209/21
f 137/193/20 153/212/20 156/215/20 151/210/20
f 142/199/21 160/219/21 157/216/21 147/205/21
f 158/217/22 156/215/22 157/216/22 160/219/22
f 159/218/22 154/213/22 155/214/22 161/220/22
f 145/203/16 150/209/16 151/210/16 146/204/16
f 142/199/16 147/205/16 49/206/16 46/200/16
f 162/221/14 86/222/14 87/223/14 88/224/14
f 85/225/13 83/226/13 84/227/13 163/228/13
f 70/93/13 91/229/13 164/230/13 71/94/13
f 91/229/13 93/231/13 165/232/13 164/230/13
f 93/231/13 85/225/13 163/228/13 165/232/13
f 74/97/14 166/233/14 99/234/14 29/98/14
f 166/233/14 167/235/14 97/236/14 99/234/14
f 167/235/14 162/221/14 88/224/14 97/236/14
f 168/237/16 169/238/16 162/221/16 167/235/16
f 170/239/16 168/237/16 167/235/16 166/233/16
f 134/188/16 170/239/16 166/233/16 74/97/16
f 169/238/16 94/240/16 86/222/16 162/221/16
f 163/228/16 84/227/16 108/241/16 171/242/16
f 71/94/16 164/230/16 172/243/16 140/196/16
f 164/230/16 165/232/16 173/244/16 172/243/16
f 165/232/16 163/228/16 171/242/16 173/244/16
f 174/245/16 110/246/16 94/240/16 169/238/16
f 170/239/4 134/188/4 175/247/4 176/248/4
f 177/249/16 178/250/16 168/237/16 170/239/16
f 169/238/4 168/237/4 179/251/4 180/252/4
f 181/253/17 182/254/17 176/248/17 175/247/17
f 183/255/17 184/256/17 180/252/17 179/251/17
f 174/245/20 169/238/20 180/252/20 184/256/20
f 178/250/21 173/244/21 185/257/21 183/255/21
f 177/249/20 170/239/20 176/248/20 182/254/20
f 144/202/21 140/196/21 186/258/21 181/253/21
f 173/244/5 171/242/5 187/259/5 185/257/5
f 140/196/5 172/243/5 188/260/5 186/258/5
f 134/188/18 144/202/18 181/253/18 175/247/18
f 172/243/19 177/249/19 182/254/19 188/260/19
f 168/237/18 178/250/18 183/255/18 179/251/18
f 171/242/19 174/245/19 184/256/19 187/259/19
f 185/257/22 187/259/22 184/256/22 183/255/22
f 186/258/22 188/260/22 182/254/22 181/253/22
f 172/243/16 173/244/16 178/250/16 177/249/16
f 171/242/16 108/241/16 110/246/16 174/245/16
f 34/46/2 45/60/2 89/134/2 18/43/2
